#define image_width  16
#define image_height 16
static unsigned char image_bits[] = {
 0x00,0x00,0x00,0x00,0x40,0x00,0x60,0x00,0x70,0x00,0xf8,0x7f,
 0xfc,0x7f,0xfe,0x7f,0xfe,0x7f,0xfc,0x7f,0xf8,0x7f,0x70,0x00,
 0x60,0x00,0x40,0x00,0x00,0x00,0x00,0x00};