#define image_width  16
#define image_height 16
static unsigned char image_bits[] = {
 0x00,0x00,0x00,0x00,0x00,0x02,0x00,0x06,0x00,0x0e,0xfe,0x1f,
 0xfe,0x3f,0xfe,0x7f,0xfe,0x7f,0xfe,0x3f,0xfe,0x1f,0x00,0x0e,
 0x00,0x06,0x00,0x02,0x00,0x00,0x00,0x00};