#define image_width  32
#define image_height 32
static unsigned char image_bits[] = {
 0x00,0x00,0x00,0x00,0x00,0x00,0x00,0x00,0x00,0x00,0x00,0x00,
 0x00,0x00,0x00,0x00,0x00,0x00,0x00,0x00,0x00,0x80,0x03,0x00,
 0x00,0xe0,0x0f,0x00,0x00,0xf0,0x1f,0x00,0x00,0xfc,0x7f,0x00,
 0x80,0xff,0xff,0x01,0x40,0xff,0xff,0x02,0x78,0xff,0xff,0x1e,
 0xbc,0xff,0xff,0x3d,0xbc,0xff,0xff,0x3d,0xbc,0xff,0xff,0x3d,
 0xbc,0xff,0xff,0x3d,0xbc,0xff,0xff,0x3d,0xbc,0xff,0xff,0x3d,
 0xbc,0xff,0xff,0x3d,0xbc,0xff,0xff,0x3d,0xbc,0xff,0xff,0x3d,
 0x78,0xff,0xff,0x1e,0x40,0xff,0xff,0x02,0x80,0xff,0xff,0x01,
 0x00,0xfc,0x7f,0x00,0x00,0xf0,0x1f,0x00,0x00,0xe0,0x0f,0x00,
 0x00,0x80,0x03,0x00,0x00,0x00,0x00,0x00,0x00,0x00,0x00,0x00,
 0x00,0x00,0x00,0x00,0x00,0x00,0x00,0x00};