#define image_width  16
#define image_height 16
static unsigned char image_bits[] = {
 0x40,0x00,0x60,0x00,0xf0,0x03,0xf8,0x07,0xf8,0x0f,0xf0,0x1f,
 0x60,0x1e,0x40,0x1e,0x08,0x1e,0x1c,0x1e,0xfe,0x1f,0xfc,0x0f,
 0xf8,0x07,0xf0,0x03,0x00,0x00,0x00,0x00};